<svg xmlns="http://www.w3.org/2000/svg" xmlns:xlink="http://www.w3.org/1999/xlink" width="500" zoomAndPan="magnify" viewBox="0 0 375 374.999991" height="500" preserveAspectRatio="xMidYMid meet" version="1.0"><defs><clipPath id="a6e36d88e4"><path d="M 31 4.464844 L 224 4.464844 L 224 269 L 31 269 Z M 31 4.464844 " clip-rule="nonzero"/></clipPath></defs><path fill="#78a831" d="M 320.890625 309.417969 C 283.03125 371.121094 236.648438 379.335938 192.648438 360.8125 C 192.902344 351.90625 193.59375 342.304688 194.90625 332.195312 C 203.5 265.90625 288 155.898438 289.007812 154.585938 C 287.984375 155.4375 202.414062 226.710938 173.496094 315.765625 C 169.824219 327.066406 167.371094 337.171875 165.894531 346.222656 C 120.0625 315.441406 98.378906 267.375 140.5 198.730469 C 184.394531 127.1875 330.78125 90.953125 330.78125 90.953125 C 330.78125 90.953125 364.789062 237.875 320.890625 309.417969 Z M 320.890625 309.417969 " fill-opacity="1" fill-rule="nonzero"/><g clip-path="url(#a6e36d88e4)"><path fill="#2e6417" d="M 223.457031 115.449219 C 191.199219 130.722656 158.152344 151.019531 137.46875 176.296875 C 106.589844 128.007812 80.363281 76.269531 79.742188 74.765625 C 80.007812 76.355469 93.46875 133.898438 126.128906 192.859375 C 109.246094 221.855469 103.875 247.09375 106.933594 268.84375 C 85.308594 261.347656 65.015625 243.433594 47.804688 211.410156 C 10.226562 141.484375 50.285156 4.605469 50.285156 4.605469 C 50.285156 4.605469 184.96875 46.253906 223.457031 115.449219 Z M 223.457031 115.449219 " fill-opacity="1" fill-rule="nonzero"/></g></svg>