<svg width="112" height="183" version="1.1" xmlns="http://www.w3.org/2000/svg" desc="Created with imagetracer.js version 1.2.6" ><path fill="rgb(0,0,0)" stroke="rgb(0,0,0)" stroke-width="1" opacity="0" d="M 0 0 L 112 0 L 112 183 L 0 183 L 0 0 Z M 23 3 L 21 5 L 21 16 L 26 26 L 32 30 Q 33 33 35 31 Q 39 35 48 34 L 50 32 L 50 30 Q 52 19 47 15 L 41 8 L 35 5 L 23 3 Z M 69 12 L 68 15 Q 67 20 69 22 Q 70 25 66 23 L 62 23 L 58 24 L 57 28 L 62 31 L 68 31 Q 70 32 68 34 Q 67 39 69 41 L 73 42 Q 77 40 75 33 L 81 29 L 86 29 L 87 26 L 85 24 L 83 24 L 77 23 L 75 22 Q 77 15 74 14 L 74 12 L 69 12 Z M 51 39 L 49 40 L 33 61 L 14 91 L 8 103 L 3 120 L 2 123 L 2 140 L 3 141 L 2 143 L 11 161 L 21 170 L 30 176 L 46 181 L 50 181 L 52 181 L 55 182 L 57 181 L 60 182 L 64 182 L 79 178 L 91 171 Q 105 161 109 142 L 110 139 L 110 127 L 109 126 L 110 124 L 106 111 L 100 99 Q 88 78 73 62 Q 74 59 71 60 L 65 52 Q 60 43 51 39 Z " /><path fill="rgb(0,0,0)" stroke="rgb(0,0,0)" stroke-width="1" opacity="0" d="M 42.5 19 L 46 25.5 L 44 26.5 Q 41 23.8 42.5 19 Z " /><path fill="rgb(0,0,0)" stroke="rgb(0,0,0)" stroke-width="1" opacity="0" d="M 51.5 52 L 56 55.5 L 60 62 L 63 63.5 L 74 76.5 L 92 103.5 L 100 122.5 L 101 136.5 Q 98.4 139.4 99 145.5 L 90.5 158 Q 88.3 157.3 89 159.5 L 86 161 Q 87.1 163.7 84.5 163 L 81.5 166 L 69.5 171 L 59.5 173 L 52.5 173 Q 47.9 170.3 41 171 L 40.5 169 L 38.5 169 Q 26.7 165.3 20 156.5 Q 10.3 146.7 11 126.5 L 12 123.5 L 14 113.5 L 25 90.5 L 51.5 52 Z M 61 94 L 60 95 L 49 95 L 42 99 L 35 109 L 35 117 L 39 125 L 49 130 L 63 133 L 71 137 L 74 143 L 72 148 L 69 151 L 58 155 L 47 155 L 34 151 L 32 152 Q 28 151 30 157 L 36 160 L 44 161 L 46 163 L 56 163 L 67 160 Q 73 158 77 153 Q 76 150 79 151 L 81 146 Q 81 136 77 131 L 70 127 L 56 123 L 52 123 L 48 121 L 43 116 L 44 112 Q 47 116 56 115 L 58 115 L 75 121 Q 77 120 76 116 L 70 111 Q 62 112 60 108 L 52 108 L 51 107 L 49 108 L 45 107 L 46 105 L 54 101 L 72 102 L 73 98 L 70 95 L 61 94 Z " /><path fill="rgb(158,160,103)" stroke="rgb(158,160,103)" stroke-width="1" opacity="0.8666666666666667" d="M 22.5 4 L 34.5 6 L 44 11 L 50 21.5 L 50 28.5 L 47.5 33 L 35.5 32 L 26 24.5 L 23 19.5 L 21 11.5 L 22 9.5 L 21 5.5 L 22.5 4 Z M 32 12 Q 31 15 34 14 L 36 17 L 36 13 L 32 12 Z M 42 19 L 41 22 L 47 30 L 47 28 L 47 26 L 44 21 Q 45 18 42 19 Z " /><path fill="rgb(158,160,103)" stroke="rgb(158,160,103)" stroke-width="1" opacity="0.8666666666666667" d="M 70.5 12 L 74 13.5 L 74 22.5 L 75.5 24 L 78.5 23 L 79.5 24 L 86 24 L 86 29 L 78.5 29 Q 77.4 31.8 74 31 L 74 41 L 70.5 41 L 69 39.5 L 69 31.5 L 67.5 30 L 59.5 29 L 58 27.5 L 59 24 L 69 24 L 69 13.5 L 70.5 12 Z " /><path fill="rgb(158,160,103)" stroke="rgb(158,160,103)" stroke-width="1" opacity="0.8666666666666667" d="M 49.5 40 L 53.5 41 L 65 52.5 L 72 62 Q 74.7 60.9 74 63.5 Q 89.6 80.4 101 101.5 L 107 114.5 L 110 127.5 L 110 135.5 L 107 148.5 L 98 164 L 95 165.5 Q 95.8 167.8 93.5 167 Q 85.8 175.3 73.5 179 L 66.5 181 L 49.5 181 L 43.5 179 L 38.5 179 L 29.5 175 Q 18.3 169.2 11 159.5 L 5 148.5 L 5 145.5 L 2 139.5 L 2 123.5 L 8 104.5 L 17 86.5 Q 26.3 75.5 32 62 Q 34.7 63.1 34 60.5 L 49.5 40 Z M 50 52 L 25 90 Q 16 104 11 122 L 11 141 L 15 151 L 22 159 Q 24 158 23 161 L 38 170 L 49 173 L 64 173 L 75 170 L 83 166 L 90 160 Q 89 157 92 158 Q 98 151 101 140 L 101 124 Q 97 108 88 97 Q 89 94 86 95 L 86 93 L 77 80 L 63 62 Q 60 63 61 61 L 53 52 L 50 52 Z " /><path fill="rgb(158,160,103)" stroke="rgb(158,160,103)" stroke-width="1" opacity="0.8666666666666667" d="M 51.5 95 L 67.5 95 L 72 97.5 L 71.5 101 L 50.5 101 L 45 104 L 44 108 L 53.5 108 L 64.5 110 L 72.5 113 L 75 115.5 L 76 118.5 L 72.5 120 L 63.5 116 L 44 113 Q 45 110 42 111 Q 42.2 118.6 47.5 122 L 70.5 128 L 77 132 L 80 137.5 L 80 146.5 L 71.5 157 L 61.5 161 L 46.5 162 L 34.5 159 L 31 156.5 L 30 154.5 L 31 152 L 35.5 152 L 41.5 155 L 59.5 155 L 68.5 152 L 72 148.5 Q 74.7 146.2 74 140.5 L 72 137 Q 64 131.6 50.5 130 L 40 125 L 36 118.5 L 35 110.5 Q 36.2 102.2 42.5 99 L 51.5 95 Z " /><path fill="rgb(87,88,56)" stroke="rgb(87,88,56)" stroke-width="1" opacity="0.08235294117647059" d="M 22.5 3 L 24 3.5 L 21.5 5 L 22.5 3 Z " /><path fill="rgb(87,88,56)" stroke="rgb(87,88,56)" stroke-width="1" opacity="0.08235294117647059" d="M 25.5 4 L 30 4.5 L 25.5 5 L 25.5 4 Z " /><path fill="rgb(87,88,56)" stroke="rgb(87,88,56)" stroke-width="1" opacity="0.08235294117647059" d="M 32.5 5 L 38 7.5 L 36.5 7 L 32.5 6 L 32.5 5 Z " /><path fill="rgb(87,88,56)" stroke="rgb(87,88,56)" stroke-width="1" opacity="0.08235294117647059" d="M 39.5 8 L 43 10.5 L 40.5 9 L 39.5 8 Z " /><path fill="rgb(87,88,56)" stroke="rgb(87,88,56)" stroke-width="1" opacity="0.08235294117647059" d="M 31.5 11 L 36 13 L 35.5 17 L 34 14 Q 31.3 15.1 32 12.5 L 31.5 11 Z " /><path fill="rgb(87,88,56)" stroke="rgb(87,88,56)" stroke-width="1" opacity="0.08235294117647059" d="M 21.5 12 L 23 17.5 L 22 17.5 L 21.5 12 Z " /><path fill="rgb(87,88,56)" stroke="rgb(87,88,56)" stroke-width="1" opacity="0.08235294117647059" d="M 44.5 12 L 46.5 15 L 44.5 12 Z " /><path fill="rgb(87,88,56)" stroke="rgb(87,88,56)" stroke-width="1" opacity="0.08235294117647059" d="M 68.5 14 L 69 20.5 L 68 20.5 L 68.5 14 Z " /><path fill="rgb(87,88,56)" stroke="rgb(87,88,56)" stroke-width="1" opacity="0.08235294117647059" d="M 74.5 14 L 75 21.5 L 76.5 23 L 78 23.5 L 75.5 24 L 74 22.5 L 74.5 14 Z " /><path fill="rgb(87,88,56)" stroke="rgb(87,88,56)" stroke-width="1" opacity="0.08235294117647059" d="M 47.5 16 L 49 18.5 L 48 18.5 L 47.5 16 Z " /><path fill="rgb(87,88,56)" stroke="rgb(87,88,56)" stroke-width="1" opacity="0.08235294117647059" d="M 23.5 20 L 26 23.5 L 24 22.5 L 23.5 20 Z " /><path fill="rgb(87,88,56)" stroke="rgb(87,88,56)" stroke-width="1" opacity="0.08235294117647059" d="M 41.5 21 L 44 25.5 L 42 24.5 L 41.5 21 Z " /><path fill="rgb(87,88,56)" stroke="rgb(87,88,56)" stroke-width="1" opacity="0.08235294117647059" d="M 44.5 21 L 47 25.5 L 47 27.5 L 46.5 30 L 44 27.5 Q 47.5 26 45 24.5 L 44.5 21 Z " /><path fill="rgb(87,88,56)" stroke="rgb(87,88,56)" stroke-width="1" opacity="0.08235294117647059" d="M 65.5 23 L 69 23.5 L 65.5 24 L 65.5 23 Z " /><path fill="rgb(87,88,56)" stroke="rgb(87,88,56)" stroke-width="1" opacity="0.08235294117647059" d="M 58.5 24 L 59 25.5 L 58 27.5 L 58.5 29 L 57 26.5 L 58.5 24 Z " /><path fill="rgb(87,88,56)" stroke="rgb(87,88,56)" stroke-width="1" opacity="0.08235294117647059" d="M 26.5 25 L 34 31.5 L 31.5 30 L 26.5 25 Z " /><path fill="rgb(87,88,56)" stroke="rgb(87,88,56)" stroke-width="1" opacity="0.08235294117647059" d="M 86.5 25 L 87 27.5 L 86 27.5 L 86.5 25 Z " /><path fill="rgb(87,88,56)" stroke="rgb(87,88,56)" stroke-width="1" opacity="0.08235294117647059" d="M 60.5 29 Q 66.7 28.3 69 31.5 L 67.5 31 Q 60.3 32.5 60.5 29 Z " /><path fill="rgb(87,88,56)" stroke="rgb(87,88,56)" stroke-width="1" opacity="0.08235294117647059" d="M 78.5 29 L 80 29.5 L 77.5 31 L 78.5 29 Z " /><path fill="rgb(87,88,56)" stroke="rgb(87,88,56)" stroke-width="1" opacity="0.08235294117647059" d="M 49.5 31 L 47.5 34 L 41 33.5 L 47.5 33 L 49.5 31 Z " /><path fill="rgb(87,88,56)" stroke="rgb(87,88,56)" stroke-width="1" opacity="0.08235294117647059" d="M 74 31 L 76 31.5 L 74.5 40 L 74 31 Z " /><path fill="rgb(87,88,56)" stroke="rgb(87,88,56)" stroke-width="1" opacity="0.08235294117647059" d="M 37.5 32 L 40 32.5 L 37.5 33 L 37.5 32 Z " /><path fill="rgb(87,88,56)" stroke="rgb(87,88,56)" stroke-width="1" opacity="0.08235294117647059" d="M 68.5 33 L 69 38.5 L 68 38.5 L 68.5 33 Z " /><path fill="rgb(87,88,56)" stroke="rgb(87,88,56)" stroke-width="1" opacity="0.08235294117647059" d="M 50.5 39 L 53 40.5 L 51.5 40 L 50.5 39 Z " /><path fill="rgb(87,88,56)" stroke="rgb(87,88,56)" stroke-width="1" opacity="0.08235294117647059" d="M 48.5 40 L 48 41.5 L 45.5 45 L 47 42.5 L 48.5 40 Z " /><path fill="rgb(87,88,56)" stroke="rgb(87,88,56)" stroke-width="1" opacity="0.08235294117647059" d="M 54.5 41 L 64.5 52 L 54.5 41 Z " /><path fill="rgb(87,88,56)" stroke="rgb(87,88,56)" stroke-width="1" opacity="0.08235294117647059" d="M 44.5 46 L 42.5 49 L 44.5 46 Z " /><path fill="rgb(87,88,56)" stroke="rgb(87,88,56)" stroke-width="1" opacity="0.08235294117647059" d="M 40.5 51 L 39 53.5 L 33.5 62 L 33 60.5 L 40.5 51 Z " /><path fill="rgb(87,88,56)" stroke="rgb(87,88,56)" stroke-width="1" opacity="0.08235294117647059" d="M 65.5 53 L 70.5 59 L 65.5 53 Z " /><path fill="rgb(87,88,56)" stroke="rgb(87,88,56)" stroke-width="1" opacity="0.08235294117647059" d="M 49.5 54 L 47.5 57 L 49.5 54 Z " /><path fill="rgb(87,88,56)" stroke="rgb(87,88,56)" stroke-width="1" opacity="0.08235294117647059" d="M 56.5 56 L 61 61.5 L 60 61.5 L 56.5 56 Z " /><path fill="rgb(87,88,56)" stroke="rgb(87,88,56)" stroke-width="1" opacity="0.08235294117647059" d="M 46.5 58 L 45.5 60 L 46.5 58 Z " /><path fill="rgb(87,88,56)" stroke="rgb(87,88,56)" stroke-width="1" opacity="0.08235294117647059" d="M 43.5 62 L 43 63.5 L 41.5 66 L 42 64.5 L 43.5 62 Z " /><path fill="rgb(87,88,56)" stroke="rgb(87,88,56)" stroke-width="1" opacity="0.08235294117647059" d="M 62.5 62 L 68 68.5 L 63 64.5 L 62.5 62 Z " /><path fill="rgb(87,88,56)" stroke="rgb(87,88,56)" stroke-width="1" opacity="0.08235294117647059" d="M 74.5 63 L 76.5 66 L 74.5 63 Z " /><path fill="rgb(87,88,56)" stroke="rgb(87,88,56)" stroke-width="1" opacity="0.08235294117647059" d="M 30.5 65 L 29.5 67 L 30.5 65 Z " /><path fill="rgb(87,88,56)" stroke="rgb(87,88,56)" stroke-width="1" opacity="0.08235294117647059" d="M 40.5 67 L 38.5 70 L 40.5 67 Z " /><path fill="rgb(87,88,56)" stroke="rgb(87,88,56)" stroke-width="1" opacity="0.08235294117647059" d="M 77.5 67 L 78.5 69 L 77.5 67 Z " /><path fill="rgb(87,88,56)" stroke="rgb(87,88,56)" stroke-width="1" opacity="0.08235294117647059" d="M 28.5 68 L 28 69.5 L 26.5 72 L 27 70.5 L 28.5 68 Z " /><path fill="rgb(87,88,56)" stroke="rgb(87,88,56)" stroke-width="1" opacity="0.08235294117647059" d="M 68.5 70 L 73.5 76 L 68.5 70 Z " /><path fill="rgb(87,88,56)" stroke="rgb(87,88,56)" stroke-width="1" opacity="0.08235294117647059" d="M 79.5 70 L 81.5 73 L 79.5 70 Z " /><path fill="rgb(87,88,56)" stroke="rgb(87,88,56)" stroke-width="1" opacity="0.08235294117647059" d="M 36.5 72 L 36 73.5 L 32.5 79 L 34 76.5 L 36.5 72 Z " /><path fill="rgb(87,88,56)" stroke="rgb(87,88,56)" stroke-width="1" opacity="0.08235294117647059" d="M 25.5 73 L 25 74.5 L 23.5 77 L 24 75.5 L 25.5 73 Z " /><path fill="rgb(87,88,56)" stroke="rgb(87,88,56)" stroke-width="1" opacity="0.08235294117647059" d="M 83.5 75 L 89 81.5 L 86 79.5 L 83.5 75 Z " /><path fill="rgb(87,88,56)" stroke="rgb(87,88,56)" stroke-width="1" opacity="0.08235294117647059" d="M 74.5 77 L 80 84.5 L 78 83.5 L 74.5 77 Z " /><path fill="rgb(87,88,56)" stroke="rgb(87,88,56)" stroke-width="1" opacity="0.08235294117647059" d="M 22.5 78 L 21 80.5 L 18.5 85 L 19 83.5 L 22.5 78 Z " /><path fill="rgb(87,88,56)" stroke="rgb(87,88,56)" stroke-width="1" opacity="0.08235294117647059" d="M 30.5 81 L 31 82.5 L 29 83.5 L 30.5 81 Z " /><path fill="rgb(87,88,56)" stroke="rgb(87,88,56)" stroke-width="1" opacity="0.08235294117647059" d="M 89.5 83 L 90.5 85 L 89.5 83 Z " /><path fill="rgb(87,88,56)" stroke="rgb(87,88,56)" stroke-width="1" opacity="0.08235294117647059" d="M 28.5 85 L 28 86.5 L 25.5 90 L 27 87.5 L 28.5 85 Z " /><path fill="rgb(87,88,56)" stroke="rgb(87,88,56)" stroke-width="1" opacity="0.08235294117647059" d="M 16.5 87 L 17 88.5 L 14.5 92 L 14 90.5 L 16.5 87 Z " /><path fill="rgb(87,88,56)" stroke="rgb(87,88,56)" stroke-width="1" opacity="0.08235294117647059" d="M 81.5 87 L 83.5 90 L 81.5 87 Z " /><path fill="rgb(87,88,56)" stroke="rgb(87,88,56)" stroke-width="1" opacity="0.08235294117647059" d="M 92.5 87 L 95 90.5 L 93 89.5 L 92.5 87 Z " /><path fill="rgb(87,88,56)" stroke="rgb(87,88,56)" stroke-width="1" opacity="0.08235294117647059" d="M 24.5 91 L 25 92.5 L 23 93.5 L 24.5 91 Z " /><path fill="rgb(87,88,56)" stroke="rgb(87,88,56)" stroke-width="1" opacity="0.08235294117647059" d="M 84.5 91 L 86 93.5 L 85 93.5 L 84.5 91 Z " /><path fill="rgb(87,88,56)" stroke="rgb(87,88,56)" stroke-width="1" opacity="0.08235294117647059" d="M 95.5 92 L 98 95.5 L 96 94.5 L 95.5 92 Z " /><path fill="rgb(87,88,56)" stroke="rgb(87,88,56)" stroke-width="1" opacity="0.08235294117647059" d="M 13.5 93 L 13 94.5 L 11.5 98 L 11 96.5 L 13.5 93 Z " /><path fill="rgb(87,88,56)" stroke="rgb(87,88,56)" stroke-width="1" opacity="0.08235294117647059" d="M 60.5 94 L 63 94.5 L 60.5 95 L 60.5 94 Z " /><path fill="rgb(87,88,56)" stroke="rgb(87,88,56)" stroke-width="1" opacity="0.08235294117647059" d="M 22.5 95 L 23 96.5 L 20.5 100 L 21 98.5 L 22.5 95 Z " /><path fill="rgb(87,88,56)" stroke="rgb(87,88,56)" stroke-width="1" opacity="0.08235294117647059" d="M 48.5 95 L 51 95.5 L 43.5 99 L 44.5 97 L 48.5 95 Z " /><path fill="rgb(87,88,56)" stroke="rgb(87,88,56)" stroke-width="1" opacity="0.08235294117647059" d="M 87.5 95 L 90 99.5 L 88 98.5 L 87.5 95 Z " /><path fill="rgb(87,88,56)" stroke="rgb(87,88,56)" stroke-width="1" opacity="0.08235294117647059" d="M 71.5 96 L 73 99.5 L 72 99.5 L 71.5 96 Z " /><path fill="rgb(87,88,56)" stroke="rgb(87,88,56)" stroke-width="1" opacity="0.08235294117647059" d="M 98.5 97 L 101 100.5 L 99 99.5 L 98.5 97 Z " /><path fill="rgb(87,88,56)" stroke="rgb(87,88,56)" stroke-width="1" opacity="0.08235294117647059" d="M 10.5 99 L 10 100.5 L 8.5 104 L 8 102.5 L 10.5 99 Z " /><path fill="rgb(87,88,56)" stroke="rgb(87,88,56)" stroke-width="1" opacity="0.08235294117647059" d="M 41.5 99 L 38.5 103 L 41.5 99 Z " /><path fill="rgb(87,88,56)" stroke="rgb(87,88,56)" stroke-width="1" opacity="0.08235294117647059" d="M 19.5 101 L 20 102.5 L 17.5 106 L 18 104.5 L 19.5 101 Z " /><path fill="rgb(87,88,56)" stroke="rgb(87,88,56)" stroke-width="1" opacity="0.08235294117647059" d="M 50.5 101 L 53 101.5 L 48.5 103 L 48.5 102 L 50.5 101 Z " /><path fill="rgb(87,88,56)" stroke="rgb(87,88,56)" stroke-width="1" opacity="0.08235294117647059" d="M 60.5 101 L 72 101.5 L 60.5 102 L 60.5 101 Z " /><path fill="rgb(87,88,56)" stroke="rgb(87,88,56)" stroke-width="1" opacity="0.08235294117647059" d="M 90.5 101 L 91.5 103 L 90.5 101 Z " /><path fill="rgb(87,88,56)" stroke="rgb(87,88,56)" stroke-width="1" opacity="0.08235294117647059" d="M 101.5 102 L 103 105.5 L 102 105.5 L 101.5 102 Z " /><path fill="rgb(87,88,56)" stroke="rgb(87,88,56)" stroke-width="1" opacity="0.08235294117647059" d="M 37.5 104 L 36.5 106 L 37.5 104 Z " /><path fill="rgb(87,88,56)" stroke="rgb(87,88,56)" stroke-width="1" opacity="0.08235294117647059" d="M 45.5 104 L 46 105.5 L 45.5 108 Q 43.3 108.8 44 106.5 L 45.5 104 Z " /><path fill="rgb(87,88,56)" stroke="rgb(87,88,56)" stroke-width="1" opacity="0.08235294117647059" d="M 54.5 108 Q 59.9 107.1 62 109.5 L 60.5 110 Q 59.3 107.8 54.5 109 L 54.5 108 Z " /><path fill="rgb(87,88,56)" stroke="rgb(87,88,56)" stroke-width="1" opacity="0.08235294117647059" d="M 104.5 108 L 106 111.5 L 105 111.5 L 104.5 108 Z " /><path fill="rgb(87,88,56)" stroke="rgb(87,88,56)" stroke-width="1" opacity="0.08235294117647059" d="M 42 111 L 44 111.5 L 42.5 115 L 42 111 Z " /><path fill="rgb(87,88,56)" stroke="rgb(87,88,56)" stroke-width="1" opacity="0.08235294117647059" d="M 68.5 111 L 72 112.5 L 70.5 113 L 68.5 111 Z " /><path fill="rgb(87,88,56)" stroke="rgb(87,88,56)" stroke-width="1" opacity="0.08235294117647059" d="M 96.5 112 L 99 118.5 L 98 118.5 L 96.5 112 Z " /><path fill="rgb(87,88,56)" stroke="rgb(87,88,56)" stroke-width="1" opacity="0.08235294117647059" d="M 73.5 113 Q 76.5 113.5 76 117.5 L 75 117.5 L 73.5 113 Z " /><path fill="rgb(87,88,56)" stroke="rgb(87,88,56)" stroke-width="1" opacity="0.08235294117647059" d="M 4.5 114 L 5 115.5 L 2.5 121 L 3 119.5 L 4.5 114 Z " /><path fill="rgb(87,88,56)" stroke="rgb(87,88,56)" stroke-width="1" opacity="0.08235294117647059" d="M 49.5 114 L 53 114.5 L 49.5 115 L 49.5 114 Z " /><path fill="rgb(87,88,56)" stroke="rgb(87,88,56)" stroke-width="1" opacity="0.08235294117647059" d="M 107.5 116 L 109 121.5 L 108 121.5 L 107.5 116 Z " /><path fill="rgb(87,88,56)" stroke="rgb(87,88,56)" stroke-width="1" opacity="0.08235294117647059" d="M 12.5 118 L 13 120.5 L 11.5 124 L 11 121.5 L 12.5 118 Z " /><path fill="rgb(87,88,56)" stroke="rgb(87,88,56)" stroke-width="1" opacity="0.08235294117647059" d="M 44.5 118 L 49 121.5 L 47.5 122 L 44.5 118 Z " /><path fill="rgb(87,88,56)" stroke="rgb(87,88,56)" stroke-width="1" opacity="0.08235294117647059" d="M 75.5 119 L 74.5 121 L 73 120.5 L 75.5 119 Z " /><path fill="rgb(87,88,56)" stroke="rgb(87,88,56)" stroke-width="1" opacity="0.08235294117647059" d="M 37.5 121 L 40 124.5 L 39 124.5 L 37.5 121 Z " /><path fill="rgb(87,88,56)" stroke="rgb(87,88,56)" stroke-width="1" opacity="0.08235294117647059" d="M 53.5 123 L 59 124.5 L 56.5 125 L 53.5 124 L 53.5 123 Z " /><path fill="rgb(87,88,56)" stroke="rgb(87,88,56)" stroke-width="1" opacity="0.08235294117647059" d="M 100.5 123 L 101 126.5 L 100 126.5 L 100.5 123 Z " /><path fill="rgb(87,88,56)" stroke="rgb(87,88,56)" stroke-width="1" opacity="0.08235294117647059" d="M 41.5 125 L 42.5 127 L 41.5 125 Z " /><path fill="rgb(87,88,56)" stroke="rgb(87,88,56)" stroke-width="1" opacity="0.08235294117647059" d="M 65.5 126 L 70 127.5 L 67.5 128 L 65.5 126 Z " /><path fill="rgb(87,88,56)" stroke="rgb(87,88,56)" stroke-width="1" opacity="0.08235294117647059" d="M 46.5 128 L 50 129.5 L 48.5 130 L 46.5 128 Z " /><path fill="rgb(87,88,56)" stroke="rgb(87,88,56)" stroke-width="1" opacity="0.08235294117647059" d="M 71.5 128 L 72.5 130 L 71.5 128 Z " /><path fill="rgb(87,88,56)" stroke="rgb(87,88,56)" stroke-width="1" opacity="0.08235294117647059" d="M 74.5 130 L 77 131.5 L 75.5 132 L 74.5 130 Z " /><path fill="rgb(87,88,56)" stroke="rgb(87,88,56)" stroke-width="1" opacity="0.08235294117647059" d="M 55.5 131 L 61 132.5 L 58.5 133 L 55.5 132 L 55.5 131 Z " /><path fill="rgb(87,88,56)" stroke="rgb(87,88,56)" stroke-width="1" opacity="0.08235294117647059" d="M 77.5 133 L 78.5 135 L 77.5 133 Z " /><path fill="rgb(87,88,56)" stroke="rgb(87,88,56)" stroke-width="1" opacity="0.08235294117647059" d="M 66.5 134 L 70 136.5 L 68.5 136 L 66.5 134 Z " /><path fill="rgb(87,88,56)" stroke="rgb(87,88,56)" stroke-width="1" opacity="0.08235294117647059" d="M 109.5 136 L 110 138.5 L 109 138.5 L 109.5 136 Z " /><path fill="rgb(87,88,56)" stroke="rgb(87,88,56)" stroke-width="1" opacity="0.08235294117647059" d="M 100.5 137 L 101 139.5 L 100 139.5 L 100.5 137 Z " /><path fill="rgb(87,88,56)" stroke="rgb(87,88,56)" stroke-width="1" opacity="0.08235294117647059" d="M 11.5 138 L 13 142.5 L 12 142.5 L 11.5 138 Z " /><path fill="rgb(87,88,56)" stroke="rgb(87,88,56)" stroke-width="1" opacity="0.08235294117647059" d="M 72.5 139 L 74 141.5 L 73 141.5 L 72.5 139 Z " /><path fill="rgb(87,88,56)" stroke="rgb(87,88,56)" stroke-width="1" opacity="0.08235294117647059" d="M 80.5 140 L 81 145.5 L 80 145.5 L 80.5 140 Z " /><path fill="rgb(87,88,56)" stroke="rgb(87,88,56)" stroke-width="1" opacity="0.08235294117647059" d="M 99.5 141 L 100 143.5 L 99 143.5 L 99.5 141 Z " /><path fill="rgb(87,88,56)" stroke="rgb(87,88,56)" stroke-width="1" opacity="0.08235294117647059" d="M 2.5 142 L 5 146.5 L 4 146.5 L 2.5 142 Z " /><path fill="rgb(87,88,56)" stroke="rgb(87,88,56)" stroke-width="1" opacity="0.08235294117647059" d="M 108.5 142 L 109 144.5 L 107.5 148 L 107 145.5 L 108.5 142 Z " /><path fill="rgb(87,88,56)" stroke="rgb(87,88,56)" stroke-width="1" opacity="0.08235294117647059" d="M 14.5 147 L 17 151.5 L 15 150.5 L 14.5 147 Z " /><path fill="rgb(87,88,56)" stroke="rgb(87,88,56)" stroke-width="1" opacity="0.08235294117647059" d="M 79.5 147 L 80 148.5 L 78.5 151 L 78 149.5 L 79.5 147 Z " /><path fill="rgb(87,88,56)" stroke="rgb(87,88,56)" stroke-width="1" opacity="0.08235294117647059" d="M 97.5 147 L 98 148.5 L 96.5 151 L 96 149.5 L 97.5 147 Z " /><path fill="rgb(87,88,56)" stroke="rgb(87,88,56)" stroke-width="1" opacity="0.08235294117647059" d="M 71.5 148 L 68.5 152 L 67 151.5 L 71.5 148 Z " /><path fill="rgb(87,88,56)" stroke="rgb(87,88,56)" stroke-width="1" opacity="0.08235294117647059" d="M 5.5 149 L 7 151.5 L 5 150.5 L 5.5 149 Z " /><path fill="rgb(87,88,56)" stroke="rgb(87,88,56)" stroke-width="1" opacity="0.08235294117647059" d="M 106.5 149 L 107 150.5 L 104.5 154 L 105 152.5 L 106.5 149 Z " /><path fill="rgb(87,88,56)" stroke="rgb(87,88,56)" stroke-width="1" opacity="0.08235294117647059" d="M 64.5 152 L 66 152.5 L 58.5 155 L 58.5 154 L 64.5 152 Z " /><path fill="rgb(87,88,56)" stroke="rgb(87,88,56)" stroke-width="1" opacity="0.08235294117647059" d="M 76.5 152 L 72.5 157 L 76.5 152 Z " /><path fill="rgb(87,88,56)" stroke="rgb(87,88,56)" stroke-width="1" opacity="0.08235294117647059" d="M 17.5 153 L 19.5 156 L 17.5 153 Z " /><path fill="rgb(87,88,56)" stroke="rgb(87,88,56)" stroke-width="1" opacity="0.08235294117647059" d="M 38.5 153 L 46 154.5 L 41.5 155 L 38.5 154 L 38.5 153 Z " /><path fill="rgb(87,88,56)" stroke="rgb(87,88,56)" stroke-width="1" opacity="0.08235294117647059" d="M 94.5 153 L 92.5 156 L 94.5 153 Z " /><path fill="rgb(87,88,56)" stroke="rgb(87,88,56)" stroke-width="1" opacity="0.08235294117647059" d="M 8.5 155 L 11 158.5 L 9 157.5 L 8.5 155 Z " /><path fill="rgb(87,88,56)" stroke="rgb(87,88,56)" stroke-width="1" opacity="0.08235294117647059" d="M 30.5 155 L 32 157.5 L 30 156.5 L 30.5 155 Z " /><path fill="rgb(87,88,56)" stroke="rgb(87,88,56)" stroke-width="1" opacity="0.08235294117647059" d="M 103.5 155 L 103 156.5 L 101.5 159 L 102 157.5 L 103.5 155 Z " /><path fill="rgb(87,88,56)" stroke="rgb(87,88,56)" stroke-width="1" opacity="0.08235294117647059" d="M 20.5 157 L 21.5 159 L 20.5 157 Z " /><path fill="rgb(87,88,56)" stroke="rgb(87,88,56)" stroke-width="1" opacity="0.08235294117647059" d="M 89.5 158 L 90 159.5 L 86.5 162 L 86.5 161 L 89 159.5 L 89.5 158 Z " /><path fill="rgb(87,88,56)" stroke="rgb(87,88,56)" stroke-width="1" opacity="0.08235294117647059" d="M 11.5 160 L 20.5 170 L 11.5 160 Z " /><path fill="rgb(87,88,56)" stroke="rgb(87,88,56)" stroke-width="1" opacity="0.08235294117647059" d="M 38.5 160 L 41 160.5 L 38.5 161 L 38.5 160 Z " /><path fill="rgb(87,88,56)" stroke="rgb(87,88,56)" stroke-width="1" opacity="0.08235294117647059" d="M 100.5 160 L 98.5 163 L 100.5 160 Z " /><path fill="rgb(87,88,56)" stroke="rgb(87,88,56)" stroke-width="1" opacity="0.08235294117647059" d="M 25.5 161 L 32 166.5 L 30.5 166 L 25.5 161 Z " /><path fill="rgb(87,88,56)" stroke="rgb(87,88,56)" stroke-width="1" opacity="0.08235294117647059" d="M 44.5 161 Q 48 163.5 55.5 162 L 59.5 161 L 59.5 162 L 45.5 163 L 44.5 161 Z " /><path fill="rgb(87,88,56)" stroke="rgb(87,88,56)" stroke-width="1" opacity="0.08235294117647059" d="M 84.5 163 L 82.5 166 L 84.5 163 Z " /><path fill="rgb(87,88,56)" stroke="rgb(87,88,56)" stroke-width="1" opacity="0.08235294117647059" d="M 96.5 164 L 95.5 166 L 96.5 164 Z " /><path fill="rgb(87,88,56)" stroke="rgb(87,88,56)" stroke-width="1" opacity="0.08235294117647059" d="M 77.5 167 L 76.5 169 L 72.5 170 L 72.5 169 L 77.5 167 Z " /><path fill="rgb(87,88,56)" stroke="rgb(87,88,56)" stroke-width="1" opacity="0.08235294117647059" d="M 93.5 167 L 90.5 171 L 87.5 173 L 89.5 170 L 93.5 167 Z " /><path fill="rgb(87,88,56)" stroke="rgb(87,88,56)" stroke-width="1" opacity="0.08235294117647059" d="M 35.5 168 L 39 169.5 L 37.5 170 L 35.5 168 Z " /><path fill="rgb(87,88,56)" stroke="rgb(87,88,56)" stroke-width="1" opacity="0.08235294117647059" d="M 22.5 170 L 26 172.5 L 24.5 172 L 22.5 170 Z " /><path fill="rgb(87,88,56)" stroke="rgb(87,88,56)" stroke-width="1" opacity="0.08235294117647059" d="M 44.5 171 L 47 171.5 L 44.5 172 L 44.5 171 Z " /><path fill="rgb(87,88,56)" stroke="rgb(87,88,56)" stroke-width="1" opacity="0.08235294117647059" d="M 65.5 171 L 68 171.5 L 65.5 172 L 65.5 171 Z " /><path fill="rgb(87,88,56)" stroke="rgb(87,88,56)" stroke-width="1" opacity="0.08235294117647059" d="M 48.5 172 L 52 172.5 L 48.5 173 L 48.5 172 Z " /><path fill="rgb(87,88,56)" stroke="rgb(87,88,56)" stroke-width="1" opacity="0.08235294117647059" d="M 60.5 172 L 64 172.5 L 60.5 173 L 60.5 172 Z " /><path fill="rgb(87,88,56)" stroke="rgb(87,88,56)" stroke-width="1" opacity="0.08235294117647059" d="M 27.5 173 L 31 175.5 L 29.5 176 L 27.5 173 Z " /><path fill="rgb(87,88,56)" stroke="rgb(87,88,56)" stroke-width="1" opacity="0.08235294117647059" d="M 85.5 173 L 84.5 175 L 83 174.5 L 85.5 173 Z " /><path fill="rgb(87,88,56)" stroke="rgb(87,88,56)" stroke-width="1" opacity="0.08235294117647059" d="M 32.5 176 L 36 177.5 L 34.5 178 L 32.5 176 Z " /><path fill="rgb(87,88,56)" stroke="rgb(87,88,56)" stroke-width="1" opacity="0.08235294117647059" d="M 79.5 176 L 78.5 178 L 77 177.5 L 79.5 176 Z " /><path fill="rgb(87,88,56)" stroke="rgb(87,88,56)" stroke-width="1" opacity="0.08235294117647059" d="M 41.5 179 L 44 179.5 L 41.5 180 L 41.5 179 Z " /><path fill="rgb(87,88,56)" stroke="rgb(87,88,56)" stroke-width="1" opacity="0.08235294117647059" d="M 45.5 180 L 49 180.5 L 45.5 181 L 45.5 180 Z " /><path fill="rgb(87,88,56)" stroke="rgb(87,88,56)" stroke-width="1" opacity="0.08235294117647059" d="M 57.5 181 L 60 181.5 L 57.5 182 L 57.5 181 Z " /></svg>