<?xml version="1.0" standalone="no"?>
<svg xmlns:xlink="http://www.w3.org/1999/xlink" id="wave" style="transform:rotate(0deg); transition: 0.3s" viewBox="0 0 1440 490" version="1.1" xmlns="http://www.w3.org/2000/svg"><defs><linearGradient id="sw-gradient-0" x1="0" x2="0" y1="1" y2="0"><stop stop-color="rgba(255, 223.041, 218.199, 1)" offset="0%"/><stop stop-color="rgba(254.858, 182.931, 172.033, 1)" offset="100%"/></linearGradient></defs><path style="transform:translate(0, 0px); opacity:1" fill="url(#sw-gradient-0)" d="M0,441L48,383.8C96,327,192,212,288,196C384,180,480,261,576,285.8C672,310,768,278,864,294C960,310,1056,376,1152,400.2C1248,425,1344,408,1440,400.2C1536,392,1632,392,1728,392C1824,392,1920,392,2016,359.3C2112,327,2208,261,2304,212.3C2400,163,2496,131,2592,171.5C2688,212,2784,327,2880,326.7C2976,327,3072,212,3168,155.2C3264,98,3360,98,3456,89.8C3552,82,3648,65,3744,65.3C3840,65,3936,82,4032,73.5C4128,65,4224,33,4320,57.2C4416,82,4512,163,4608,228.7C4704,294,4800,343,4896,318.5C4992,294,5088,196,5184,147C5280,98,5376,98,5472,122.5C5568,147,5664,196,5760,228.7C5856,261,5952,278,6048,277.7C6144,278,6240,261,6336,220.5C6432,180,6528,114,6624,81.7C6720,49,6816,49,6864,49L6912,49L6912,490L6864,490C6816,490,6720,490,6624,490C6528,490,6432,490,6336,490C6240,490,6144,490,6048,490C5952,490,5856,490,5760,490C5664,490,5568,490,5472,490C5376,490,5280,490,5184,490C5088,490,4992,490,4896,490C4800,490,4704,490,4608,490C4512,490,4416,490,4320,490C4224,490,4128,490,4032,490C3936,490,3840,490,3744,490C3648,490,3552,490,3456,490C3360,490,3264,490,3168,490C3072,490,2976,490,2880,490C2784,490,2688,490,2592,490C2496,490,2400,490,2304,490C2208,490,2112,490,2016,490C1920,490,1824,490,1728,490C1632,490,1536,490,1440,490C1344,490,1248,490,1152,490C1056,490,960,490,864,490C768,490,672,490,576,490C480,490,384,490,288,490C192,490,96,490,48,490L0,490Z"/><defs><linearGradient id="sw-gradient-1" x1="0" x2="0" y1="1" y2="0"><stop stop-color="rgba(248.027, 196.269, 188.427, 1)" offset="0%"/><stop stop-color="rgba(236.643, 174.498, 165.083, 1)" offset="100%"/></linearGradient></defs><path style="transform:translate(0, 50px); opacity:0.9" fill="url(#sw-gradient-1)" d="M0,392L48,367.5C96,343,192,294,288,302.2C384,310,480,376,576,392C672,408,768,376,864,334.8C960,294,1056,245,1152,220.5C1248,196,1344,196,1440,228.7C1536,261,1632,327,1728,302.2C1824,278,1920,163,2016,163.3C2112,163,2208,278,2304,269.5C2400,261,2496,131,2592,106.2C2688,82,2784,163,2880,179.7C2976,196,3072,147,3168,155.2C3264,163,3360,229,3456,228.7C3552,229,3648,163,3744,147C3840,131,3936,163,4032,163.3C4128,163,4224,131,4320,147C4416,163,4512,229,4608,212.3C4704,196,4800,98,4896,65.3C4992,33,5088,65,5184,81.7C5280,98,5376,98,5472,106.2C5568,114,5664,131,5760,179.7C5856,229,5952,310,6048,326.7C6144,343,6240,294,6336,285.8C6432,278,6528,310,6624,310.3C6720,310,6816,278,6864,261.3L6912,245L6912,490L6864,490C6816,490,6720,490,6624,490C6528,490,6432,490,6336,490C6240,490,6144,490,6048,490C5952,490,5856,490,5760,490C5664,490,5568,490,5472,490C5376,490,5280,490,5184,490C5088,490,4992,490,4896,490C4800,490,4704,490,4608,490C4512,490,4416,490,4320,490C4224,490,4128,490,4032,490C3936,490,3840,490,3744,490C3648,490,3552,490,3456,490C3360,490,3264,490,3168,490C3072,490,2976,490,2880,490C2784,490,2688,490,2592,490C2496,490,2400,490,2304,490C2208,490,2112,490,2016,490C1920,490,1824,490,1728,490C1632,490,1536,490,1440,490C1344,490,1248,490,1152,490C1056,490,960,490,864,490C768,490,672,490,576,490C480,490,384,490,288,490C192,490,96,490,48,490L0,490Z"/><defs><linearGradient id="sw-gradient-2" x1="0" x2="0" y1="1" y2="0"><stop stop-color="rgba(255, 255, 255, 1)" offset="0%"/><stop stop-color="rgba(255, 255, 255, 1)" offset="100%"/></linearGradient></defs><path style="transform:translate(0, 100px); opacity:0.8" fill="url(#sw-gradient-2)" d="M0,147L48,196C96,245,192,343,288,351.2C384,359,480,278,576,261.3C672,245,768,294,864,326.7C960,359,1056,376,1152,359.3C1248,343,1344,294,1440,294C1536,294,1632,343,1728,359.3C1824,376,1920,359,2016,294C2112,229,2208,114,2304,81.7C2400,49,2496,98,2592,155.2C2688,212,2784,278,2880,318.5C2976,359,3072,376,3168,343C3264,310,3360,229,3456,187.8C3552,147,3648,147,3744,122.5C3840,98,3936,49,4032,49C4128,49,4224,98,4320,163.3C4416,229,4512,310,4608,359.3C4704,408,4800,425,4896,432.8C4992,441,5088,441,5184,416.5C5280,392,5376,343,5472,302.2C5568,261,5664,229,5760,179.7C5856,131,5952,65,6048,40.8C6144,16,6240,33,6336,73.5C6432,114,6528,180,6624,228.7C6720,278,6816,310,6864,326.7L6912,343L6912,490L6864,490C6816,490,6720,490,6624,490C6528,490,6432,490,6336,490C6240,490,6144,490,6048,490C5952,490,5856,490,5760,490C5664,490,5568,490,5472,490C5376,490,5280,490,5184,490C5088,490,4992,490,4896,490C4800,490,4704,490,4608,490C4512,490,4416,490,4320,490C4224,490,4128,490,4032,490C3936,490,3840,490,3744,490C3648,490,3552,490,3456,490C3360,490,3264,490,3168,490C3072,490,2976,490,2880,490C2784,490,2688,490,2592,490C2496,490,2400,490,2304,490C2208,490,2112,490,2016,490C1920,490,1824,490,1728,490C1632,490,1536,490,1440,490C1344,490,1248,490,1152,490C1056,490,960,490,864,490C768,490,672,490,576,490C480,490,384,490,288,490C192,490,96,490,48,490L0,490Z"/></svg>